<svg version="1.1" id="Layer_1" xmlns="http://www.w3.org/2000/svg" xmlns:xlink="http://www.w3.org/1999/xlink" x="0px" y="0px"
	 width="100%" viewBox="0 0 1000 1000" enable-background="new 0 0 1000 1000" xml:space="preserve">
<path fill="#1D1E20" opacity="1.000000" stroke="none" 
	d="
M1001.000000,219.000000 
	C1001.000000,406.692505 1001.000000,594.385010 1000.624878,782.633301 
	C999.429443,787.149414 998.554688,791.099365 997.797302,795.071716 
	C989.580139,838.168274 971.953247,876.779297 943.976257,910.788635 
	C928.092407,930.097412 909.790649,946.573425 889.035889,960.188721 
	C859.238342,979.736145 826.750427,992.828552 791.331726,998.212891 
	C788.479248,998.646606 785.773804,1000.048218 783.000000,1001.000000 
	C595.307495,1001.000000 407.614990,1001.000000 219.366730,1000.624878 
	C214.850647,999.429443 210.900513,998.555786 206.928421,997.797241 
	C163.837845,989.567261 125.194649,972.011108 91.210815,943.976562 
	C71.928261,928.069702 55.423035,909.811401 41.794632,889.046692 
	C22.230371,859.238159 9.188391,826.743835 3.787378,791.331726 
	C3.352301,788.479126 1.951848,785.773804 1.000002,783.000000 
	C1.000000,595.307495 1.000000,407.614990 1.375142,219.366730 
	C2.570554,214.850677 3.456999,210.902786 4.200768,206.928177 
	C11.022015,170.476517 24.863808,137.003311 46.180614,106.581703 
	C64.320892,80.693390 86.591393,59.052834 112.944374,41.781342 
	C142.766068,22.236488 175.256134,9.188409 210.668259,3.787388 
	C213.520859,3.352310 216.226212,1.951856 219.000000,1.000003 
	C406.692505,1.000000 594.385010,1.000000 782.633301,1.375112 
	C787.149414,2.570519 791.099609,3.444277 795.071716,4.202920 
	C838.162231,12.432843 876.798523,29.997498 910.791626,58.020214 
	C930.083252,73.923584 946.573181,92.209412 960.188416,112.964180 
	C979.735840,142.761826 992.828491,175.249573 998.212769,210.668335 
	C998.646423,213.520874 1000.048157,216.226242 1001.000000,219.000000 
M572.453918,336.953918 
	C567.228271,343.443878 562.064758,349.985077 556.766052,356.414856 
	C534.956848,382.879639 515.035950,410.995453 489.448273,434.171173 
	C470.564178,451.275269 450.420959,466.559570 425.280273,473.274780 
	C414.483795,476.158630 403.348541,477.774261 391.712891,480.096680 
	C391.712891,477.270447 391.712891,475.974121 391.712921,474.677795 
	C391.714142,407.016052 391.599701,339.353943 391.818848,271.692902 
	C391.860291,258.899231 392.773315,246.061951 394.116638,233.332657 
	C395.339813,221.741867 398.734192,210.778687 408.694702,203.215775 
	C416.092102,197.598999 424.807617,195.364838 433.711090,194.051437 
	C443.350830,192.629425 453.084930,191.847305 462.711670,190.793335 
	C462.711670,184.666611 462.711670,178.740906 462.711670,172.427109 
	C372.717438,176.041641 283.006195,175.917770 193.199615,172.478210 
	C193.199615,179.050827 193.199615,184.998260 193.199615,190.553421 
	C204.825058,192.058060 216.274963,193.103653 227.556335,195.101074 
	C245.017532,198.192657 257.648560,207.583786 260.280273,225.946716 
	C262.538757,241.705566 264.057495,257.720520 264.086456,273.625519 
	C264.362396,425.280640 264.306519,576.936523 264.153320,728.591980 
	C264.140045,741.717041 263.258575,754.895813 261.845459,767.948425 
	C260.599426,779.457581 257.561249,790.590210 247.615372,798.239807 
	C239.081696,804.803223 228.823059,806.396790 218.665833,808.010986 
	C210.207687,809.355164 201.648499,810.063538 193.309341,811.033142 
	C193.309341,817.422546 193.309341,823.351318 193.309341,828.972656 
	C283.322968,825.895691 373.029999,825.947388 462.754608,828.950684 
	C462.754608,822.896667 462.754608,816.968872 462.754608,811.406372 
	C450.627563,809.593506 438.734344,808.147583 426.974548,805.978394 
	C410.141388,802.873596 398.885101,793.321777 395.857300,775.966614 
	C394.032318,765.506226 392.143829,754.877258 392.094208,744.315491 
	C391.715912,663.823364 391.782349,583.329163 391.727051,502.835571 
	C391.726166,501.569275 391.936493,500.302856 392.067688,498.815948 
	C404.760406,500.089996 416.864471,501.897186 427.551453,508.869293 
	C439.084045,516.393066 448.005035,526.533813 455.291809,537.952026 
	C504.441498,614.968140 553.446838,692.076660 602.303955,769.278687 
	C606.070374,775.230225 609.038208,781.912476 611.120178,788.643860 
	C613.379272,795.948120 610.178345,801.287720 602.973511,804.050049 
	C598.500671,805.764893 593.815247,807.152100 589.100769,807.958801 
	C581.242981,809.303162 573.285339,810.063965 564.998718,811.117615 
	C564.998718,814.053955 564.998718,817.028870 564.998718,820.003723 
	C564.998718,823.104553 564.998718,826.205322 564.998718,829.545288 
	C646.691040,825.888367 727.728821,825.850281 809.002747,829.296509 
	C809.002747,824.327454 808.734375,819.822327 809.086792,815.366333 
	C809.374084,811.733337 808.026794,810.161621 804.649414,808.995361 
	C777.724182,799.698120 756.646667,782.770874 740.936584,759.154358 
	C668.379761,650.082336 595.890015,540.965759 523.314392,431.906281 
	C521.714539,429.502136 521.949585,427.989197 523.733093,425.851440 
	C532.590515,415.234589 541.244141,404.448181 550.038818,393.778564 
	C587.335693,348.530060 624.263306,302.968964 662.107971,258.183044 
	C687.355225,228.305161 719.028503,207.296158 756.685730,195.830856 
	C762.988098,193.912018 769.394104,192.333847 775.646545,190.627090 
	C775.646545,184.536224 775.646545,178.756454 775.646545,172.416245 
	C705.043335,177.280563 634.687805,174.672409 564.415771,172.620834 
	C564.415771,179.056244 564.415771,184.814667 564.415771,190.759293 
	C566.340271,190.864960 568.013062,190.772263 569.611145,191.074493 
	C580.032532,193.045288 590.807922,194.003891 600.769409,197.363480 
	C620.240540,203.930191 629.216919,218.307983 628.139954,238.815186 
	C627.408081,252.750870 622.157410,265.345825 615.590820,277.402924 
	C603.892029,298.883545 588.075439,317.414978 572.453918,336.953918 
z"/>
<path fill="#000000" opacity="1.000000" stroke="none" 
	d="
M783.468628,1001.000000 
	C785.773804,1000.048218 788.479248,998.646606 791.331726,998.212891 
	C826.750427,992.828552 859.238342,979.736145 889.035889,960.188721 
	C909.790649,946.573425 928.092407,930.097412 943.976257,910.788635 
	C971.953247,876.779297 989.580139,838.168274 997.797302,795.071716 
	C998.554688,791.099365 999.429443,787.149414 1000.624878,783.094482 
	C1001.000000,855.593689 1001.000000,928.187378 1001.000000,1001.000000 
	C928.645935,1001.000000 856.291626,1001.000000 783.468628,1001.000000 
z"/>
<path fill="#000000" opacity="1.000000" stroke="none" 
	d="
M1001.000000,218.531342 
	C1000.048157,216.226242 998.646423,213.520874 998.212769,210.668335 
	C992.828491,175.249573 979.735840,142.761826 960.188416,112.964180 
	C946.573181,92.209412 930.083252,73.923584 910.791626,58.020214 
	C876.798523,29.997498 838.162231,12.432843 795.071716,4.202920 
	C791.099609,3.444277 787.149414,2.570519 783.094543,1.375112 
	C855.593689,1.000000 928.187378,1.000000 1001.000000,1.000000 
	C1001.000000,73.354080 1001.000000,145.708389 1001.000000,218.531342 
z"/>
<path fill="#000000" opacity="1.000000" stroke="none" 
	d="
M1.000002,783.468628 
	C1.951848,785.773804 3.352301,788.479126 3.787378,791.331726 
	C9.188391,826.743835 22.230371,859.238159 41.794632,889.046692 
	C55.423035,909.811401 71.928261,928.069702 91.210815,943.976562 
	C125.194649,972.011108 163.837845,989.567261 206.928421,997.797241 
	C210.900513,998.555786 214.850647,999.429443 218.905487,1000.624878 
	C146.406296,1001.000000 73.812607,1001.000000 1.000000,1001.000000 
	C1.000000,928.645935 1.000000,856.291626 1.000002,783.468628 
z"/>
<path fill="#000000" opacity="1.000000" stroke="none" 
	d="
M218.531342,1.000003 
	C216.226212,1.951856 213.520859,3.352310 210.668259,3.787388 
	C175.256134,9.188409 142.766068,22.236488 112.944374,41.781342 
	C86.591393,59.052834 64.320892,80.693390 46.180614,106.581703 
	C24.863808,137.003311 11.022015,170.476517 4.200768,206.928177 
	C3.456999,210.902786 2.570554,214.850677 1.375142,218.905487 
	C1.000000,146.406296 1.000000,73.812584 1.000000,1.000000 
	C73.354080,1.000000 145.708389,1.000000 218.531342,1.000003 
z"/>
<path fill="#F1F2F4" opacity="1.000000" stroke="none" 
	d="
M572.683167,336.680054 
	C588.075439,317.414978 603.892029,298.883545 615.590820,277.402924 
	C622.157410,265.345825 627.408081,252.750870 628.139954,238.815186 
	C629.216919,218.307983 620.240540,203.930191 600.769409,197.363480 
	C590.807922,194.003891 580.032532,193.045288 569.611145,191.074493 
	C568.013062,190.772263 566.340271,190.864960 564.415771,190.759293 
	C564.415771,184.814667 564.415771,179.056244 564.415771,172.620834 
	C634.687805,174.672409 705.043335,177.280563 775.646545,172.416245 
	C775.646545,178.756454 775.646545,184.536224 775.646545,190.627090 
	C769.394104,192.333847 762.988098,193.912018 756.685730,195.830856 
	C719.028503,207.296158 687.355225,228.305161 662.107971,258.183044 
	C624.263306,302.968964 587.335693,348.530060 550.038818,393.778564 
	C541.244141,404.448181 532.590515,415.234589 523.733093,425.851440 
	C521.949585,427.989197 521.714539,429.502136 523.314392,431.906281 
	C595.890015,540.965759 668.379761,650.082336 740.936584,759.154358 
	C756.646667,782.770874 777.724182,799.698120 804.649414,808.995361 
	C808.026794,810.161621 809.374084,811.733337 809.086792,815.366333 
	C808.734375,819.822327 809.002747,824.327454 809.002747,829.296509 
	C727.728821,825.850281 646.691040,825.888367 564.998718,829.545288 
	C564.998718,826.205322 564.998718,823.104553 564.998718,820.003723 
	C564.998718,817.028870 564.998718,814.053955 564.998718,811.117615 
	C573.285339,810.063965 581.242981,809.303162 589.100769,807.958801 
	C593.815247,807.152100 598.500671,805.764893 602.973511,804.050049 
	C610.178345,801.287720 613.379272,795.948120 611.120178,788.643860 
	C609.038208,781.912476 606.070374,775.230225 602.303955,769.278687 
	C553.446838,692.076660 504.441498,614.968140 455.291809,537.952026 
	C448.005035,526.533813 439.084045,516.393066 427.551453,508.869293 
	C416.864471,501.897186 404.760406,500.089996 392.067688,498.815948 
	C391.936493,500.302856 391.726166,501.569275 391.727051,502.835571 
	C391.782349,583.329163 391.715912,663.823364 392.094208,744.315491 
	C392.143829,754.877258 394.032318,765.506226 395.857300,775.966614 
	C398.885101,793.321777 410.141388,802.873596 426.974548,805.978394 
	C438.734344,808.147583 450.627563,809.593506 462.754608,811.406372 
	C462.754608,816.968872 462.754608,822.896667 462.754608,828.950684 
	C373.029999,825.947388 283.322968,825.895691 193.309341,828.972656 
	C193.309341,823.351318 193.309341,817.422546 193.309341,811.033142 
	C201.648499,810.063538 210.207687,809.355164 218.665833,808.010986 
	C228.823059,806.396790 239.081696,804.803223 247.615372,798.239807 
	C257.561249,790.590210 260.599426,779.457581 261.845459,767.948425 
	C263.258575,754.895813 264.140045,741.717041 264.153320,728.591980 
	C264.306519,576.936523 264.362396,425.280640 264.086456,273.625519 
	C264.057495,257.720520 262.538757,241.705566 260.280273,225.946716 
	C257.648560,207.583786 245.017532,198.192657 227.556335,195.101074 
	C216.274963,193.103653 204.825058,192.058060 193.199615,190.553421 
	C193.199615,184.998260 193.199615,179.050827 193.199615,172.478210 
	C283.006195,175.917770 372.717438,176.041641 462.711670,172.427109 
	C462.711670,178.740906 462.711670,184.666611 462.711670,190.793335 
	C453.084930,191.847305 443.350830,192.629425 433.711090,194.051437 
	C424.807617,195.364838 416.092102,197.598999 408.694702,203.215775 
	C398.734192,210.778687 395.339813,221.741867 394.116638,233.332657 
	C392.773315,246.061951 391.860291,258.899231 391.818848,271.692902 
	C391.599701,339.353943 391.714142,407.016052 391.712921,474.677795 
	C391.712891,475.974121 391.712891,477.270447 391.712891,480.096680 
	C403.348541,477.774261 414.483795,476.158630 425.280273,473.274780 
	C450.420959,466.559570 470.564178,451.275269 489.448273,434.171173 
	C515.035950,410.995453 534.956848,382.879639 556.766052,356.414856 
	C562.064758,349.985077 567.228271,343.443878 572.683167,336.680054 
z"/>
</svg>